# xmcd CD database file
#
# Track frame offsets:
#	150
#	52522
#	94750
#	139822
#	181520
#	223445
#
# Disc length: 3525 seconds
#
# Revision: 0
# Processed by: cddbd v1.5.1PL0 Copyright (c) Steve Scherf et al.
# Submitted via: CDex 1.50beta9
#
DISCID=4b0dc306
DTITLE=Heikki Sarmanto - The Traveler
DYEAR=1991
DGENRE=Jazz
TTITLE0=Man from Moldavia
TTITLE1=Northern Atmosphere
TTITLE2=A Little Gipsy
TTITLE3=Sonny Caribbean
TTITLE4=A Touch of Irish
TTITLE5=Spanish Fire
EXTD=YEAR: 1991
EXTT0=
EXTT1=
EXTT2=
EXTT3=
EXTT4=
EXTT5=
PLAYORDER=
